<?xml version="1.0" encoding="UTF-8" standalone="no"?>
<!-- Created with Inkscape (http://www.inkscape.org/) -->

<svg
   xmlns:dc="http://purl.org/dc/elements/1.1/"
   xmlns:cc="http://creativecommons.org/ns#"
   xmlns:rdf="http://www.w3.org/1999/02/22-rdf-syntax-ns#"
   xmlns:svg="http://www.w3.org/2000/svg"
   xmlns="http://www.w3.org/2000/svg"
   xmlns:sodipodi="http://sodipodi.sourceforge.net/DTD/sodipodi-0.dtd"
   xmlns:inkscape="http://www.inkscape.org/namespaces/inkscape"
   width="3000"
   height="500"
   id="svg2"
   version="1.1"
   inkscape:version="0.48.4 r9939"
   sodipodi:docname="banner.svg">
  <defs
     id="defs4">
    <marker
       inkscape:stockid="Arrow1Lstart"
       orient="auto"
       refY="0"
       refX="0"
       id="Arrow1Lstart"
       style="overflow:visible">
      <path
         id="path3778"
         d="M 0,0 5,-5 -12.5,0 5,5 0,0 z"
         style="fill-rule:evenodd;stroke:#000000;stroke-width:1pt"
         transform="matrix(0.8,0,0,0.8,10,0)"
         inkscape:connector-curvature="0" />
    </marker>
  </defs>
  <sodipodi:namedview
     id="base"
     pagecolor="#ffffff"
     bordercolor="#666666"
     borderopacity="1.0"
     inkscape:pageopacity="0.0"
     inkscape:pageshadow="2"
     inkscape:zoom="0.35"
     inkscape:cx="1858.2388"
     inkscape:cy="290.55968"
     inkscape:document-units="px"
     inkscape:current-layer="layer1"
     showgrid="false"
     inkscape:window-width="1904"
     inkscape:window-height="1002"
     inkscape:window-x="0"
     inkscape:window-y="0"
     inkscape:window-maximized="0" />
  <metadata
     id="metadata7">
    <rdf:RDF>
      <cc:Work
         rdf:about="">
        <dc:format>image/svg+xml</dc:format>
        <dc:type
           rdf:resource="http://purl.org/dc/dcmitype/StillImage" />
        <dc:title />
      </cc:Work>
    </rdf:RDF>
  </metadata>
  <g
     inkscape:label="Layer 1"
     inkscape:groupmode="layer"
     id="layer1"
     transform="translate(0,-552.36218)">
    <path
       sodipodi:type="arc"
       style="fill:#002642;fill-opacity:1;stroke:#02040f;stroke-width:3.09190345;stroke-linecap:round;stroke-linejoin:round;stroke-miterlimit:4;stroke-opacity:1;stroke-dasharray:none"
       id="path5148"
       sodipodi:cx="373.25137"
       sodipodi:cy="381.85016"
       sodipodi:rx="188.39345"
       sodipodi:ry="188.39345"
       d="m 561.64482,381.85016 a 188.39345,188.39345 0 1 1 -376.78689,0 188.39345,188.39345 0 1 1 376.78689,0 z"
       transform="matrix(0.96970455,0,0,0.96970455,257.85894,420.08423)" />
    <path
       style="fill:#840032;fill-opacity:1;stroke:#02040f;stroke-width:2.72084165;stroke-linejoin:round;stroke-miterlimit:4;stroke-opacity:1;stroke-dasharray:none"
       inkscape:transform-center-x="9.9493291"
       inkscape:transform-center-y="-4.7709589"
       d="m 517.93344,812.90247 104.3563,21.61986 104.61052,-21.90055 -0.58532,100.20479 -104.3563,-21.61985 -104.61052,21.90054 z"
       id="path2991"
       inkscape:connector-curvature="0"
       sodipodi:nodetypes="ccccccc" />
    <rect
       style="fill:#840032;fill-opacity:1;stroke:#02040f;stroke-width:2.72084165;stroke-linecap:butt;stroke-linejoin:round;stroke-miterlimit:4;stroke-opacity:1;stroke-dasharray:none"
       id="rect5151"
       width="62.328312"
       height="72.849838"
       x="590.50348"
       y="826.61249" />
    <path
       sodipodi:type="arc"
       style="fill:#e59500;fill-opacity:1;stroke:#02040f;stroke-width:2.90262794;stroke-linecap:round;stroke-linejoin:round;stroke-miterlimit:4;stroke-opacity:1;stroke-dasharray:none"
       id="path5155"
       sodipodi:cx="-253.54829"
       sodipodi:cy="257.60141"
       sodipodi:rx="130.30968"
       sodipodi:ry="30.809652"
       d="m -123.23862,257.60141 a 130.30968,30.809652 0 1 1 -260.61935,0 130.30968,30.809652 0 1 1 260.61935,0 z"
       transform="matrix(0.77992872,0,0,1.1265979,818.15821,485.96816)" />
    <path
       style="fill:#e59500;fill-opacity:1;stroke:#02040f;stroke-width:2.72084165;stroke-linecap:round;stroke-linejoin:round;stroke-miterlimit:4;stroke-opacity:1;stroke-dasharray:none"
       d="m 620.02515,635.76039 c -27.92121,0 -50.5753,5.10528 -50.5753,11.40961 0,42.65985 0,83.41974 0,124.68901 0,6.30431 22.65409,11.40959 50.5753,11.40959 27.92119,0 50.55083,-5.10528 50.55083,-11.40959 0,-43.33031 0,-86.41154 0,-124.68901 0,-6.30433 -22.62964,-11.40961 -50.55083,-11.40961 z"
       id="rect5153"
       inkscape:connector-curvature="0"
       sodipodi:nodetypes="sccsccs" />
    <path
       transform="matrix(0.38885602,0,0,0.442761,718.69897,533.48416)"
       d="m -123.23862,257.60141 a 130.30968,30.809652 0 1 1 -260.61935,0 130.30968,30.809652 0 1 1 260.61935,0 z"
       sodipodi:ry="30.809652"
       sodipodi:rx="130.30968"
       sodipodi:cy="257.60141"
       sodipodi:cx="-253.54829"
       id="path5159"
       style="fill:#e59500;fill-opacity:1;stroke:#02040f;stroke-width:6.55728674;stroke-linecap:round;stroke-linejoin:round;stroke-miterlimit:4;stroke-opacity:1;stroke-dasharray:none"
       sodipodi:type="arc" />
    <flowRoot
       xml:space="preserve"
       id="flowRoot3033"
       style="font-size:200px;font-style:normal;font-variant:normal;font-weight:bold;font-stretch:normal;text-align:start;line-height:125%;letter-spacing:0px;word-spacing:0px;writing-mode:lr-tb;text-anchor:start;fill:#002642;fill-opacity:1;stroke:none;font-family:Script MT Bold;-inkscape-font-specification:'Script MT Bold, Bold'"
       transform="matrix(1.3030742,0,0,1.3030742,-755.16274,-470.67074)"><flowRegion
         id="flowRegion3035"><rect
           id="rect3037"
           width="1582.8572"
           height="262.85712"
           x="857.14288"
           y="130.71428"
           style="font-size:200px;font-style:normal;font-variant:normal;font-weight:bold;font-stretch:normal;text-align:start;line-height:125%;writing-mode:lr-tb;text-anchor:start;fill:#002642;fill-opacity:1;font-family:Script MT Bold;-inkscape-font-specification:'Script MT Bold, Bold'" /></flowRegion><flowPara
         id="flowPara3039"
         style="font-size:200px;font-style:normal;font-variant:normal;font-weight:bold;font-stretch:normal;text-align:start;line-height:125%;writing-mode:lr-tb;text-anchor:start;fill:#002642;fill-opacity:1;font-family:Script MT Bold;-inkscape-font-specification:'Script MT Bold, Bold'">Dandy Game Shop</flowPara></flowRoot>    <g
       transform="matrix(1.0619025,0,0,1.0619025,-56.373346,539.85762)"
       style="font-size:200px;font-style:normal;font-variant:normal;font-weight:bold;font-stretch:normal;text-align:start;line-height:125%;letter-spacing:0px;word-spacing:0px;writing-mode:lr-tb;text-anchor:start;fill:#002642;fill-opacity:1;stroke:none;font-family:Script MT Bold;-inkscape-font-specification:'Script MT Bold, Bold'"
       id="flowRoot3033-1">
      <path
         d="m 912.52734,275.54938 12.5,5.27344 c 4.03639,1.75782 7.34042,2.94597 9.91211,3.56445 2.57154,0.6185 5.02922,0.92775 7.37305,0.92774 10.8072,1e-5 19.48232,-7.08006 26.02539,-21.24024 6.54285,-14.16011 9.81433,-29.34564 9.81445,-45.55664 -1.2e-4,-17.1223 -4.1505,-30.90809 -12.45117,-41.35742 -8.30088,-10.44909 -19.15699,-15.67369 -32.56836,-15.67383 -10.74225,1.4e-4 -20.81711,3.85755 -30.22461,11.57227 -9.40759,7.71496 -14.11136,15.86924 -14.11133,24.46289 -3e-5,6.4454 2.73435,10.83993 8.20313,13.18359 2.34371,1.10686 3.51558,2.5717 3.51562,4.39454 -4e-5,1.88809 -2.55537,3.93887 -7.66601,6.15234 -5.11071,2.21361 -8.21943,3.32038 -9.32617,3.32031 -3.32034,7e-5 -6.25002,-1.93678 -8.78907,-5.81055 -2.53907,-3.87361 -3.8086,-8.15421 -3.80859,-12.84179 -10e-6,-12.4348 6.49412,-24.23492 19.48242,-35.40039 12.98824,-11.16523 29.89903,-16.74791 50.73242,-16.74805 19.92178,1.4e-4 35.80718,5.48516 47.65625,16.45508 11.84883,10.97016 17.77333,25.66741 17.77343,44.0918 -10e-5,14.06256 -3.6622,27.4089 -10.98632,40.03906 -7.32435,12.63023 -17.18762,22.65626 -29.58984,30.07812 -12.40244,7.42188 -25.53719,11.13281 -39.4043,11.13282 -11.6537,-10e-6 -22.52608,-2.53907 -32.61718,-7.61719 -8.13805,5.07812 -15.20185,7.61718 -21.19141,7.61719 -3.38543,-10e-6 -6.23373,-0.97657 -8.54492,-2.92969 -2.3112,-1.95312 -3.4668,-4.32942 -3.4668,-7.12891 0,-4.55728 2.3763,-8.39842 7.12891,-11.52344 4.75259,-3.12497 10.70961,-4.68747 17.87109,-4.6875 5.07809,3e-5 9.92835,0.81383 14.55078,2.44141 4.10152,-3.38539 6.90099,-7.4544 8.39844,-12.20703 1.49734,-4.75257 2.99474,-13.151 4.49219,-25.19531 1.49734,-12.0442 3.84108,-21.51685 7.03125,-28.41797 3.19004,-6.90095 7.89381,-12.67894 14.11133,-17.33399 6.21736,-4.65484 12.48363,-7.34038 18.79882,-8.05664 l 3.8086,5.17578 c -4.03656,4.10167 -7.04762,8.26833 -9.03321,12.5 -1.98576,4.23187 -3.77612,13.33016 -5.37109,27.29493 -1.59514,13.96489 -4.65503,24.44665 -9.17969,31.44531 -4.52481,6.99873 -11.47467,13.19989 -20.84961,18.60351 z"
         style="fill:#002642;font-family:Script MT Bold;-inkscape-font-specification:'Script MT Bold, Bold'"
         id="path3030"
         inkscape:connector-curvature="0" />
      <path
         d="m 1115.5547,271.54548 c -10.4168,9.89584 -17.8712,16.34115 -22.3633,19.33594 -4.4923,2.99479 -8.7891,4.49218 -12.8906,4.49218 -10.2865,0 -15.1368,-9.08202 -14.5508,-27.24609 -6.5105,9.30991 -12.5163,16.17839 -18.0176,20.60547 -5.5013,4.42708 -11.1816,6.64062 -17.041,6.64062 -5.7292,0 -10.5957,-2.68554 -14.5996,-8.05664 -4.0039,-5.37108 -6.0059,-11.96287 -6.0059,-19.77539 0,-9.76559 2.6856,-19.07547 8.0567,-27.92969 5.3711,-8.8541 12.2558,-16.01555 20.6543,-21.48437 8.3984,-5.46867 15.8202,-8.20304 22.2656,-8.20313 8.138,9e-5 13.8346,3.74357 17.0898,11.23047 l 19.9219,-11.03515 5.4688,0 -8.5938,28.61328 c -4.4271,14.38806 -6.6407,24.25133 -6.6406,29.58984 -10e-5,5.59898 1.9856,8.39846 5.957,8.39844 2.539,2e-5 5.3385,-1.35089 8.3985,-4.05274 3.0598,-2.7018 7.3566,-6.81963 12.8906,-12.35351 z m -71.4844,5.37109 c 6.5104,2e-5 12.6464,-5.55011 18.4082,-16.65039 5.7617,-11.10022 8.6425,-21.33784 8.6426,-30.71289 -10e-5,-3.64577 -0.8139,-6.49407 -2.4414,-8.54492 -1.6277,-2.05071 -3.8087,-3.0761 -6.543,-3.07617 -6.5104,7e-5 -12.6791,5.53392 -18.5058,16.60156 -5.8269,11.06775 -8.7403,21.25655 -8.7403,30.56641 0,3.51564 0.8626,6.36395 2.5879,8.54492 1.7252,2.181 3.9225,3.2715 6.5918,3.27148 z"
         style="fill:#002642;font-family:Script MT Bold;-inkscape-font-specification:'Script MT Bold, Bold'"
         id="path3032"
         inkscape:connector-curvature="0" />
      <path
         d="m 1211.4531,271.54548 c -15.0391,15.88542 -27.9297,23.82812 -38.6718,23.82812 -4.3621,0 -7.8777,-1.52995 -10.5469,-4.58984 -2.6693,-3.05989 -4.004,-7.16145 -4.0039,-12.30469 -10e-5,-6.96612 2.8645,-17.61064 8.5937,-31.93359 3.0599,-7.68224 4.5898,-12.56505 4.5899,-14.64844 -10e-5,-2.08327 -0.8139,-3.12494 -2.4414,-3.125 -0.9116,6e-5 -2.116,0.45579 -3.6133,1.36719 -1.3673,0.91152 -2.9623,2.18105 -4.7852,3.80859 -1.6276,1.49746 -3.4505,3.32037 -5.4687,5.46875 -1.7579,1.82297 -3.6459,3.9063 -5.6641,6.25 l -5.4687,6.34766 c -2.4089,2.92972 -3.9063,6.02217 -4.4922,9.27734 -0.9766,5.53388 -1.6277,10.612 -1.9532,15.23438 -0.1953,3.45053 -0.2929,8.10547 -0.2929,13.96484 l -21.5821,5.07813 c -0.7161,-8.78906 -1.0742,-15.33202 -1.0742,-19.62891 0,-10.48174 1.2207,-20.41012 3.6621,-29.78516 2.4414,-9.37494 6.364,-19.92181 11.7676,-31.64062 l 23.8281,-4.58985 c -5.013,13.47664 -8.3008,24.0886 -9.8632,31.83594 10.677,-11.914 19.1568,-20.16594 25.4394,-24.75586 6.2825,-4.58976 11.8652,-6.88468 16.7481,-6.88476 3.3202,8e-5 6.0871,1.25333 8.3007,3.75976 2.2135,2.50659 3.3203,5.64786 3.3204,9.42383 -1e-4,6.25006 -2.7996,16.53651 -8.3985,30.85938 -3.8412,9.83075 -5.7618,16.21096 -5.7617,19.14062 -10e-5,3.90627 1.595,5.85939 4.7852,5.85938 4.7525,1e-5 12.4348,-6.28254 23.0468,-18.84766 z"
         style="fill:#002642;font-family:Script MT Bold;-inkscape-font-specification:'Script MT Bold, Bold'"
         id="path3034"
         inkscape:connector-curvature="0" />
      <path
         d="m 1315.5547,271.54548 c -9.3751,9.30991 -16.5203,15.60873 -21.4356,18.89648 -4.9154,3.28776 -9.2611,4.93164 -13.0371,4.93164 -4.6224,0 -8.2845,-2.24609 -10.9863,-6.73828 -2.7019,-4.49218 -4.0853,-11.06769 -4.1504,-19.72656 -5.3386,8.65887 -11.1491,15.23438 -17.4316,19.72656 -6.2826,4.49219 -11.9629,6.73828 -17.041,6.73828 -5.5339,0 -10.4167,-2.62044 -14.6485,-7.86133 -4.2318,-5.24087 -6.3476,-11.37693 -6.3476,-18.4082 0,-14.51819 5.2897,-27.97846 15.8691,-40.38086 10.5794,-12.40226 21.9563,-18.60343 34.1309,-18.60351 3.3853,8e-5 6.0383,0.48836 7.9589,1.46484 1.9206,0.97664 4.0202,2.6368 6.2989,4.98047 l 13.9648,-58.39844 c 11.3932,-2.66913 19.0754,-4.00377 23.0469,-4.0039 1.302,1.3e-4 1.953,0.52097 1.9531,1.5625 -10e-5,0.71628 -1.6277,7.45455 -4.8828,20.21484 -13.0209,51.04173 -19.5313,81.83597 -19.5312,92.38281 -10e-5,2.47398 0.5207,4.45966 1.5625,5.95703 1.0415,1.49742 2.4087,2.24611 4.1015,2.2461 4.1666,10e-6 11.0351,-5.40363 20.6055,-16.21094 z m -70.6055,5.17578 c 6.3802,2e-5 12.3372,-5.40362 17.8711,-16.21094 5.5338,-10.80725 8.3007,-20.93093 8.3008,-30.37109 -10e-5,-3.84108 -0.8627,-6.90097 -2.5879,-9.17969 -1.7253,-2.27857 -3.9877,-3.41789 -6.7871,-3.41797 -6.0547,8e-5 -11.9141,5.64786 -17.5781,16.94336 -5.6641,11.29562 -8.4962,21.50069 -8.4961,30.61524 -10e-5,3.58075 0.83,6.41278 2.4902,8.49609 1.6601,2.08335 3.9225,3.12502 6.7871,3.125 z"
         style="fill:#002642;font-family:Script MT Bold;-inkscape-font-specification:'Script MT Bold, Bold'"
         id="path3036"
         inkscape:connector-curvature="0" />
      <path
         d="m 1419.8516,271.54548 c -8.2684,8.00782 -21.4845,16.21094 -39.6485,24.60937 -6.0547,17.18748 -12.8581,29.34567 -20.4101,36.47461 -7.5522,7.12886 -15.4297,10.69331 -23.6328,10.69336 -4.1667,-5e-5 -7.5033,-1.26958 -10.0098,-3.80859 -2.5065,-2.53911 -3.7598,-5.92452 -3.7598,-10.15625 0,-12.82555 11.7513,-24.44663 35.2539,-34.86328 l 5.9571,-20.9961 c -12.3048,13.73699 -23.112,20.60547 -32.4219,20.60547 -5.013,0 -9.0658,-2.05078 -12.1582,-6.15234 -3.0925,-4.10156 -4.6387,-9.5703 -4.6387,-16.40625 0,-9.8307 2.1484,-20.37756 6.4453,-31.64063 l 9.375,-24.80468 28.418,-4.98047 -12.207,29.0039 c -5.599,13.99744 -8.3985,24.5443 -8.3985,31.64063 0,5.85939 1.9857,8.78907 5.9571,8.78906 4.0364,10e-6 8.6425,-3.25519 13.8183,-9.76562 5.1757,-6.51039 9.5214,-14.5182 13.0371,-24.02344 l 11.1328,-30.66406 26.6602,-4.98047 -25.3906,76.36718 c 14.9087,-6.83592 27.1158,-15.55987 36.6211,-26.17187 z m -65.0391,32.61719 c -8.0078,3.58071 -14.1765,7.60089 -18.5059,12.06054 -4.3294,4.45961 -6.4941,8.83786 -6.4941,13.13477 0,4.36194 1.8555,6.54292 5.5664,6.54297 7.2265,-5e-5 13.7044,-10.57946 19.4336,-31.73828 z"
         style="fill:#002642;font-family:Script MT Bold;-inkscape-font-specification:'Script MT Bold, Bold'"
         id="path3038"
         inkscape:connector-curvature="0" />
      <path
         d="m 1596.9023,271.54548 c -4.4272,5.14324 -12.8907,10.93751 -25.3906,17.38281 -2.6042,17.3177 -8.366,30.71286 -17.2851,40.18555 -8.9194,9.47261 -18.9454,14.20893 -30.0782,14.20898 -5.3386,-5e-5 -9.5215,-1.23703 -12.5488,-3.71094 -3.0274,-2.474 -4.541,-5.89196 -4.541,-10.2539 0,-12.1094 11.7512,-23.86069 35.2539,-35.25391 2.4739,-8.78905 4.8827,-16.6992 7.2266,-23.73047 -4.1017,5.9245 -10.0587,11.16538 -17.8711,15.72266 -7.8126,4.55729 -15.0717,6.83594 -21.7774,6.83594 -10.9375,0 -20.0358,-4.73633 -27.2949,-14.20899 -7.2591,-9.47263 -10.8887,-21.46806 -10.8887,-35.98633 0,-15.29941 4.1016,-29.80135 12.3047,-43.50586 8.2031,-13.70431 18.9778,-24.67436 32.3242,-32.91015 13.3463,-8.23554 26.2695,-12.35338 38.7696,-12.35352 11.1978,1.4e-4 20.2961,3.19024 27.2949,9.57032 6.9986,6.38033 10.4979,14.64855 10.498,24.80468 -10e-5,10.9376 -3.9389,20.573 -11.8164,28.90625 -7.8777,8.3334 -16.9271,12.50007 -27.1484,12.5 -5.9897,7e-5 -10.9539,-1.46478 -14.8926,-4.39453 -3.9389,-2.92962 -5.9083,-6.54289 -5.9082,-10.83984 -10e-5,-2.60409 0.7649,-4.91528 2.2949,-6.9336 1.5299,-2.01814 3.304,-3.02725 5.3223,-3.02734 1.9531,9e-5 2.9296,1.13941 2.9297,3.41797 -10e-5,2.01831 0.7486,3.58081 2.2461,4.6875 1.4973,1.10685 3.2226,1.66023 5.1758,1.66016 5.2082,7e-5 10.2049,-3.56438 14.9902,-10.69336 4.785,-7.12881 7.1776,-14.76227 7.1777,-22.90039 -1e-4,-5.72905 -1.8555,-10.40027 -5.5664,-14.01368 -3.711,-3.61315 -8.4962,-5.41979 -14.3554,-5.41992 -8.7892,1.3e-4 -17.3015,3.90638 -25.5372,11.71875 -8.2357,7.81261 -14.9414,18.08279 -20.1171,30.81055 -5.1759,12.72794 -7.7637,24.82103 -7.7637,36.2793 0,10.54691 2.2786,18.92907 6.8359,25.14648 4.5573,6.21747 10.612,9.32619 18.1641,9.32617 12.7603,2e-5 24.9674,-9.0169 36.6211,-27.05078 l 18.3594,-2.63672 c 2.2785,-0.32547 3.4178,0.22791 3.4179,1.66016 -10e-5,0.65109 -0.879,3.45056 -2.6367,8.39844 -1.7579,4.94795 -4.1668,13.21617 -7.2266,24.80468 10.0911,-5.85935 17.9036,-12.33721 23.4375,-19.43359 z m -56.8359,32.42187 c -16.9271,8.46353 -25.3907,16.79685 -25.3906,25 -10e-5,4.36194 2.0833,6.54293 6.25,6.54297 8.203,-4e-5 14.5832,-10.51435 19.1406,-31.54297 z"
         style="fill:#002642;font-family:Script MT Bold;-inkscape-font-specification:'Script MT Bold, Bold'"
         id="path3040"
         inkscape:connector-curvature="0" />
      <path
         d="m 1701.1016,271.54548 c -10.4168,9.89584 -17.8712,16.34115 -22.3633,19.33594 -4.4923,2.99479 -8.7892,4.49218 -12.8906,4.49218 -10.2866,0 -15.1368,-9.08202 -14.5508,-27.24609 -6.5105,9.30991 -12.5163,16.17839 -18.0176,20.60547 -5.5013,4.42708 -11.1817,6.64062 -17.041,6.64062 -5.7292,0 -10.5957,-2.68554 -14.5996,-8.05664 -4.0039,-5.37108 -6.0059,-11.96287 -6.0059,-19.77539 0,-9.76559 2.6856,-19.07547 8.0567,-27.92969 5.371,-8.8541 12.2558,-16.01555 20.6543,-21.48437 8.3983,-5.46867 15.8202,-8.20304 22.2656,-8.20313 8.1379,9e-5 13.8345,3.74357 17.0898,11.23047 l 19.9219,-11.03515 5.4687,0 -8.5937,28.61328 c -4.4272,14.38806 -6.6407,24.25133 -6.6406,29.58984 -10e-5,5.59898 1.9856,8.39846 5.957,8.39844 2.539,2e-5 5.3385,-1.35089 8.3984,-4.05274 3.0598,-2.7018 7.3567,-6.81963 12.8907,-12.35351 z m -71.4844,5.37109 c 6.5104,2e-5 12.6464,-5.55011 18.4082,-16.65039 5.7617,-11.10022 8.6425,-21.33784 8.6426,-30.71289 -10e-5,-3.64577 -0.8139,-6.49407 -2.4414,-8.54492 -1.6277,-2.05071 -3.8087,-3.0761 -6.543,-3.07617 -6.5105,7e-5 -12.6791,5.53392 -18.5059,16.60156 -5.8268,11.06775 -8.7402,21.25655 -8.7402,30.56641 0,3.51564 0.8626,6.36395 2.5879,8.54492 1.7252,2.181 3.9225,3.2715 6.5918,3.27148 z"
         style="fill:#002642;font-family:Script MT Bold;-inkscape-font-specification:'Script MT Bold, Bold'"
         id="path3042"
         inkscape:connector-curvature="0" />
      <path
         d="m 1844.9492,271.54548 c -8.1381,7.94272 -15.1043,13.89975 -20.8984,17.87109 -5.7944,3.97136 -11.4259,5.95703 -16.8945,5.95703 -4.297,0 -7.6987,-1.48112 -10.2051,-4.44336 -2.5066,-2.96223 -3.7599,-6.94986 -3.7598,-11.96289 -10e-5,-7.03123 1.7577,-15.95049 5.2734,-26.75781 3.5156,-10.80724 5.2734,-17.38275 5.2735,-19.72656 -10e-5,-2.08327 -1.0743,-3.12494 -3.2227,-3.125 -0.6511,6e-5 -1.4324,0.22793 -2.3437,0.68359 -0.9767,0.45579 -2.0835,1.10683 -3.3203,1.95313 -1.2371,0.91152 -2.5717,2.01828 -4.0039,3.32031 -1.4324,1.30214 -2.9298,2.79953 -4.4922,4.49219 -1.6928,1.69276 -3.3855,3.54822 -5.0782,5.5664 -2.8646,3.38546 -4.5573,6.21749 -5.0781,8.4961 l -3.2226,13.96484 -5.8594,23.04688 -24.8047,4.49218 9.4727,-40.23437 c 0.716,-2.92965 1.5624,-7.22652 2.539,-12.89063 0.9765,-5.664 1.4648,-9.04942 1.4649,-10.15625 -10e-5,-2.21348 -0.7488,-3.32025 -2.2461,-3.32031 -0.4558,6e-5 -1.1069,0.22793 -1.9532,0.68359 -0.9766,0.4558 -2.0833,1.13939 -3.3203,2.05079 -1.4323,1.04172 -2.9623,2.2787 -4.5898,3.71093 -1.7579,1.56256 -3.6459,3.35292 -5.6641,5.3711 -2.1484,2.14848 -4.362,4.52478 -6.6406,7.1289 -3.125,3.51567 -5.0782,7.61723 -5.8594,12.30469 -1.0417,5.59899 -1.7578,10.612 -2.1484,15.03906 -0.4558,4.4271 -0.7162,9.37501 -0.7813,14.84375 l -21.6796,5.17578 c -0.5209,-7.48697 -0.7813,-13.73696 -0.7813,-18.75 0,-11.91403 1.237,-22.28186 3.7109,-31.10351 2.474,-8.82156 6.5104,-19.12428 12.1094,-30.9082 l 23.6328,-4.58985 c -4.2318,10.61205 -7.5195,20.86595 -9.8633,30.76172 17.513,-20.37753 30.9245,-30.56632 40.2344,-30.56641 3.3854,9e-5 6.136,1.38355 8.252,4.15039 2.1158,2.76701 3.1737,6.39656 3.1738,10.88868 -10e-5,2.0834 -0.3256,5.92454 -0.9766,11.52343 11.0025,-11.00253 18.8964,-18.18026 23.6817,-21.5332 4.785,-3.35278 9.1958,-5.02921 13.2324,-5.0293 3.5806,9e-5 6.5103,1.43238 8.7891,4.29688 2.2785,2.86466 3.4178,6.51049 3.4179,10.9375 -1e-4,6.96621 -1.9207,15.91802 -5.7617,26.85547 -3.8413,10.93753 -5.7618,18.16408 -5.7617,21.67969 -10e-5,3.64584 1.3345,5.46876 4.0039,5.46875 1.6926,1e-5 4.0526,-1.12304 7.0801,-3.36915 3.0272,-2.24607 8.3169,-7.40557 15.8691,-15.47851 z"
         style="fill:#002642;font-family:Script MT Bold;-inkscape-font-specification:'Script MT Bold, Bold'"
         id="path3044"
         inkscape:connector-curvature="0" />
      <path
         d="m 1917.8984,271.54548 c -8.2683,8.13803 -15.6901,14.14389 -22.2656,18.01758 -6.5756,3.87369 -13.8347,5.81054 -21.7773,5.81054 -8.8542,0 -15.9994,-2.83203 -21.4356,-8.49609 -5.4362,-5.66405 -8.1543,-13.11847 -8.1543,-22.36328 0,-13.80204 4.7852,-26.28575 14.3555,-37.45117 9.5703,-11.16529 20.1822,-16.74797 31.8359,-16.74805 6.0547,8e-5 10.9049,1.56258 14.5508,4.6875 3.6458,3.12507 5.4687,7.22663 5.4688,12.30469 -10e-5,13.47661 -14.323,24.4141 -42.9688,32.8125 2.6042,12.69533 9.4075,19.04298 20.4102,19.04297 4.2968,1e-5 8.3984,-1.15559 12.3047,-3.4668 3.9061,-2.31118 9.7981,-7.43813 17.6757,-15.38086 z m -51.1718,-18.06641 c 16.6666,-4.68745 24.9999,-13.3463 25,-25.97656 -10e-5,-6.24993 -2.2787,-9.37493 -6.836,-9.375 -4.2969,7e-5 -8.3984,3.27156 -12.3047,9.81445 -3.9062,6.54303 -5.8594,15.05539 -5.8593,25.53711 z"
         style="fill:#002642;font-family:Script MT Bold;-inkscape-font-specification:'Script MT Bold, Bold'"
         id="path3046"
         inkscape:connector-curvature="0" />
      <path
         d="m 2069.9492,171.54548 c -1e-4,2.53918 -4.1993,8.78917 -12.5976,18.75 l -1.7578,0 c -1.3022,-0.52073 -2.116,-2.4413 -2.4415,-5.76172 -0.7162,-6.70561 -3.0274,-12.19064 -6.9335,-16.45508 -3.9064,-4.26419 -8.5939,-6.39635 -14.0625,-6.39648 -5.1433,1.3e-4 -9.5704,1.87187 -13.2813,5.61523 -3.711,3.74361 -5.5665,8.21952 -5.5664,13.42774 -10e-5,3.77615 1.1718,7.82888 3.5156,12.1582 2.3437,4.32952 8.4472,11.18173 18.3106,20.55664 9.8632,9.37507 16.1945,16.84577 18.9941,22.41211 2.7994,5.56646 4.1991,10.85616 4.1992,15.86914 -1e-4,11.58857 -5.0294,21.79364 -15.0879,30.61523 -10.0586,8.82162 -21.8262,13.23242 -35.3027,13.23243 -11.1328,-10e-6 -20.3125,-2.5879 -27.5391,-7.76368 -7.2265,-5.17577 -10.8398,-9.39126 -10.8398,-12.64648 0,-1.8229 1.9857,-6.05466 5.957,-12.69531 3.9714,-6.64059 6.25,-9.9609 6.836,-9.96094 2.0833,4e-5 3.5644,0.60225 4.4433,1.80664 0.8789,1.20446 1.4811,3.43428 1.8067,6.68945 0.9765,10.15627 3.4342,17.15497 7.373,20.9961 3.9388,3.84115 9.0657,5.76172 15.3809,5.76172 6.901,0 12.9231,-2.39257 18.0664,-7.17774 5.1431,-4.78514 7.7147,-10.33526 7.7148,-16.65039 -10e-5,-3.25518 -0.9929,-6.72197 -2.9785,-10.40039 -1.9857,-3.67834 -7.6172,-9.92834 -16.8945,-18.75 -9.2774,-8.82155 -15.3484,-16.29224 -18.2129,-22.41211 -2.8646,-6.1197 -4.2969,-12.07673 -4.2969,-17.87109 0,-10.09104 3.8086,-19.36837 11.4258,-27.83203 7.6171,-8.46341 17.7408,-12.69518 30.3711,-12.69532 9.5702,1.4e-4 17.5292,2.19741 23.8769,6.5918 6.3476,4.39466 9.5214,8.05676 9.5215,10.98633 z"
         style="fill:#002642;font-family:Script MT Bold;-inkscape-font-specification:'Script MT Bold, Bold'"
         id="path3048"
         inkscape:connector-curvature="0" />
      <path
         d="m 2176.2969,271.54548 c -15.4298,16.01563 -28.1251,24.02343 -38.086,24.02344 -4.4271,-10e-6 -8.0892,-1.51368 -10.9863,-4.54102 -2.8972,-3.02734 -4.3457,-6.8522 -4.3457,-11.47461 0,-7.81248 2.9948,-18.81507 8.9844,-33.00781 3.19,-7.68224 4.7851,-12.69526 4.7851,-15.03906 0,-2.66921 -1.2696,-4.00385 -3.8086,-4.00391 -2.6042,6e-5 -6.3802,1.77415 -11.3281,5.32226 -4.9479,3.54824 -10.1563,8.38222 -15.625,14.50196 -2.2787,11.9792 -3.418,26.3672 -3.4179,43.16406 l -21.7774,5.07813 c -0.8463,-6.83594 -1.2695,-14.25781 -1.2695,-22.26563 0,-19.401 2.6692,-37.46739 8.0078,-54.19922 5.3385,-16.73168 13.7369,-34.47255 25.1953,-53.22265 8.5286,-3.45039 15.9667,-6.26615 22.3145,-8.44727 6.3475,-2.18085 9.9771,-3.27135 10.8886,-3.27148 1.6927,1.3e-4 3.125,1.36732 4.2969,4.10156 1.1718,2.73451 1.7577,6.15247 1.7578,10.2539 -10e-5,6.90116 -2.1159,14.53462 -6.3476,22.90039 -4.2319,8.36598 -10.8725,18.4734 -19.9219,30.32227 8.6588,-5.01294 14.4205,-8.17049 17.2851,-9.47266 2.8646,-1.302 5.7942,-1.95304 8.7891,-1.95312 3.3202,8e-5 6.0058,1.18823 8.0566,3.56445 2.0507,2.37638 3.0761,5.51765 3.0762,9.42383 -10e-5,5.85944 -2.3275,14.94146 -6.9824,27.24609 -4.655,12.30472 -6.9825,20.01956 -6.9824,23.14454 -1e-4,1.43231 0.4394,2.70184 1.3183,3.80859 0.8789,1.10678 1.9043,1.66017 3.0762,1.66016 4.1666,1e-5 11.8489,-6.28254 23.0469,-18.84766 z m -67.6758,-40.03906 c 23.2421,-27.01815 34.8632,-46.94 34.8633,-59.76563 -10e-5,-3.90612 -1.0743,-5.85925 -3.2227,-5.85937 -3.5808,1.2e-4 -8.6914,6.41288 -15.332,19.23828 -6.6407,12.82561 -12.0769,28.28784 -16.3086,46.38672 z"
         style="fill:#002642;font-family:Script MT Bold;-inkscape-font-specification:'Script MT Bold, Bold'"
         id="path3050"
         inkscape:connector-curvature="0" />
      <path
         d="m 2263.7969,271.54548 c -3.3204,2.9297 -6.5431,4.99676 -9.668,6.20117 -3.1251,1.20444 -5.599,1.80665 -7.4219,1.80664 -4.6875,10e-6 -9.3425,-1.8229 -13.9648,-5.46875 -9.3751,14.19271 -20.1172,21.28906 -32.2266,21.28906 -7.5521,0 -13.6719,-2.83203 -18.3593,-8.49609 -4.6876,-5.66405 -7.0313,-13.18358 -7.0313,-22.55859 0,-14.84371 5.2734,-27.58784 15.8203,-38.23243 10.5469,-10.64445 23.1445,-15.96671 37.793,-15.96679 5.5338,8e-5 9.5865,0.60229 12.1582,1.80664 2.5715,1.2045 4.1503,2.62052 4.7363,4.24804 0.5859,1.62768 0.8788,3.67846 0.8789,6.15235 -1e-4,12.17454 -3.3204,27.11593 -9.9609,44.82422 3.3202,3.05992 6.8033,4.58986 10.4492,4.58984 4.3619,2e-5 9.9609,-3.80857 16.7969,-11.42578 z m -32.2266,-54.58985 c -0.9766,-0.39054 -2.3763,-0.58586 -4.1992,-0.58593 -8.4636,7e-5 -15.0879,4.42715 -19.8731,13.28125 -4.7851,8.85422 -7.1777,19.20577 -7.1777,31.05468 0,6.57555 1.0417,11.68622 3.125,15.33204 2.0833,3.64584 4.9804,5.46876 8.6914,5.46875 4.6224,1e-5 9.6354,-4.26431 15.0391,-12.79297 -6.1199,-7.68226 -9.1798,-15.95048 -9.1797,-24.80469 -10e-5,-10.41661 4.5247,-19.40097 13.5742,-26.95313 z"
         style="fill:#002642;font-family:Script MT Bold;-inkscape-font-specification:'Script MT Bold, Bold'"
         id="path3052"
         inkscape:connector-curvature="0" />
      <path
         d="m 2310.2813,226.91657 c 4.6874,-5.66399 9.1145,-9.84693 13.2812,-12.54883 4.1666,-2.70174 8.789,-4.05265 13.8672,-4.05273 6.5754,8e-5 11.9302,2.52287 16.0644,7.56836 4.1341,5.04564 6.2011,11.66998 6.2012,19.87305 -10e-5,14.38806 -4.9643,27.58791 -14.8926,39.5996 -9.9284,12.01173 -20.7194,18.01758 -32.373,18.01758 -3.2553,0 -5.8269,-0.35807 -7.7149,-1.07422 -1.888,-0.71614 -4.362,-2.3763 -7.4218,-4.98046 -4.6876,20.638 -7.7149,37.17444 -9.0821,49.60937 l -24.8046,4.39453 c 4.6223,-30.46877 10.5143,-61.32811 17.6757,-92.57812 -8.5937,11.26305 -14.388,18.19664 -17.3828,20.80078 l -2.2461,0 0,-8.78906 c 12.3698,-13.34632 22.5586,-29.55724 30.5664,-48.63282 l 22.0703,-4.0039 z m -11.2305,52.2461 c 3.3854,5.59896 7.1288,8.39844 11.2305,8.39843 6.5754,10e-6 12.386,-4.99673 17.4316,-14.99023 5.0455,-9.99346 7.5683,-19.7428 7.5684,-29.24805 -1e-4,-5.01296 -1.0255,-9.06569 -3.0762,-12.1582 -2.0509,-3.09238 -4.7039,-4.63861 -7.959,-4.63867 -2.5391,6e-5 -5.2084,1.13939 -8.0078,3.41797 -2.7995,2.2787 -4.9154,4.93169 -6.3477,7.95898 -1.4323,3.0274 -3.0599,8.3171 -4.8828,15.86914 z"
         style="fill:#002642;font-family:Script MT Bold;-inkscape-font-specification:'Script MT Bold, Bold'"
         id="path3054"
         inkscape:connector-curvature="0" />
    </g>
  </g>
</svg>
